<?xml version="1.0" standalone="no"?>
<!DOCTYPE svg PUBLIC "-//W3C//DTD SVG 20010904//EN"
 "http://www.w3.org/TR/2001/REC-SVG-20010904/DTD/svg10.dtd">
<svg version="1.0" xmlns="http://www.w3.org/2000/svg"
 width="600.000000pt" height="600.000000pt" viewBox="0 0 600.000000 600.000000"
 preserveAspectRatio="xMidYMid meet">
<metadata>
Created by potrace 1.11, written by Peter Selinger 2001-2013
</metadata>
<g transform="translate(0.000000,600.000000) scale(0.100000,-0.100000)"
fill="#000000" stroke="none">
<path d="M480 5140 l0 -50 2440 0 2440 0 0 50 0 50 -2440 0 -2440 0 0 -50z"/>
<path d="M454 4240 l0 -140 467 0 c365 0 468 -3 471 -12 2 -7 3 -565 2 -1240
l-1 -1228 179 0 178 0 0 678 c0 372 0 930 0 1239 l0 563 462 2 463 3 0 137 0
138 -1111 0 -1111 0 1 -140z"/>
<path d="M2990 3000 l0 -1380 153 0 154 0 -2 1023 c0 562 -4 1027 -7 1033 -4
5 -3 16 1 22 5 8 30 -49 65 -145 32 -87 61 -167 66 -178 4 -11 14 -36 21 -55
31 -88 538 -1263 549 -1274 13 -13 349 -14 360 -1 4 6 31 69 60 140 28 72 58
144 66 162 7 17 14 34 14 38 0 4 6 21 14 38 8 18 82 205 166 417 83 212 158
399 165 415 8 17 51 134 96 260 45 127 85 234 89 238 4 4 5 -81 3 -190 -2
-109 -5 -591 -6 -1071 l-2 -872 160 0 161 0 -1 1378 0 1377 -175 3 -176 2 -14
-37 c-8 -21 -15 -40 -15 -43 -1 -3 -7 -18 -14 -35 -7 -16 -28 -70 -48 -120
-19 -49 -41 -103 -48 -120 -7 -16 -66 -163 -130 -325 -64 -162 -120 -302 -124
-310 -8 -15 -114 -279 -117 -290 0 -3 -5 -16 -11 -30 -6 -14 -32 -79 -58 -145
-26 -66 -53 -133 -60 -150 -7 -16 -25 -61 -40 -100 -15 -38 -32 -81 -39 -95
-7 -14 -23 -53 -36 -88 -12 -34 -26 -64 -29 -66 -4 -3 -33 57 -66 132 -32 75
-71 164 -86 197 -15 33 -55 125 -89 205 -34 80 -70 163 -80 185 -10 22 -39 90
-64 150 -26 61 -53 124 -61 140 -7 17 -59 136 -115 265 -56 129 -132 305 -169
390 -37 85 -81 185 -96 223 l-29 67 -178 0 -178 0 0 -1380z"/>
<path d="M460 850 l0 -50 2440 0 2440 0 0 50 0 50 -2440 0 -2440 0 0 -50z"/>
</g>
</svg>
